<?xml version="1.0" encoding="utf-8"?>
<!-- Generator: Adobe Illustrator 16.0.0, SVG Export Plug-In . SVG Version: 6.00 Build 0)  -->
<!DOCTYPE svg PUBLIC "-//W3C//DTD SVG 1.1//EN" "http://www.w3.org/Graphics/SVG/1.1/DTD/svg11.dtd">
<svg version="1.1" id="Layer_1" xmlns="http://www.w3.org/2000/svg" xmlns:xlink="http://www.w3.org/1999/xlink" x="0px" y="0px"
	 width="184.745px" height="55.493px" viewBox="0 0 184.745 55.493" enable-background="new 0 0 184.745 55.493"
	 xml:space="preserve">
<g>
	<g>
		<g>
			<circle fill="#BBBBBB" cx="20.965" cy="21.213" r="5.5"/>
		</g>
		<g>
			<circle fill="#BBBBBB" cx="34.798" cy="21.213" r="5.5"/>
		</g>
		<g>
			<circle fill="#BBBBBB" cx="20.965" cy="34.546" r="5.5"/>
		</g>
		<g>
			<circle fill="#BBBBBB" cx="34.798" cy="34.546" r="5.5"/>
		</g>
	</g>
	<g>
		<path fill="#BBBBBB" d="M27.881,55.129c-15.026,0-27.25-12.224-27.25-27.249S12.855,0.63,27.881,0.63s27.25,12.225,27.25,27.25
			S42.907,55.129,27.881,55.129z M27.881,7.63c-11.166,0-20.25,9.084-20.25,20.25c0,11.165,9.084,20.249,20.25,20.249
			s20.25-9.084,20.25-20.249C48.131,16.714,39.047,7.63,27.881,7.63z"/>
	</g>
	<g>
		<rect x="132.177" y="10.253" fill="#BBBBBB" width="10.621" height="35"/>
	</g>
	<g>
		<rect x="119.798" y="19.587" fill="#BBBBBB" width="10.57" height="25.666"/>
	</g>
	<g>
		<polygon fill="#BBBBBB" points="109.879,19.587 107.642,28.968 105.046,19.587 105.033,19.587 95.317,19.587 95.305,19.587 
			92.711,28.964 90.474,19.587 80.745,19.587 88.02,45.253 88.029,45.253 96.748,45.253 97.759,45.253 100.175,36.288 
			102.592,45.253 103.604,45.253 112.321,45.253 112.333,45.253 119.607,19.587 		"/>
	</g>
	<g>
		<rect x="144.454" y="19.587" fill="#BBBBBB" width="10.51" height="25.666"/>
	</g>
	<g>
		<rect x="119.798" y="10.253" fill="#BBBBBB" width="10.57" height="7.674"/>
	</g>
	<g>
		<rect x="144.454" y="10.253" fill="#BBBBBB" width="10.51" height="7.674"/>
	</g>
	<g>
		<path fill="#BBBBBB" d="M170.381,19.255c-7.732,0-14,5.82-14,13s6.268,13,14,13s14-5.82,14-13S178.113,19.255,170.381,19.255z
			 M170.381,37.088c-2.393,0-4.333-2.164-4.333-4.833c0-2.67,1.94-4.834,4.333-4.834s4.333,2.164,4.333,4.834
			C174.714,34.924,172.773,37.088,170.381,37.088z"/>
	</g>
	<g>
		<path fill="#BBBBBB" d="M80.513,28.814v-9.227h-4.05c0-5,0-8.666,0-8.666l-11.139,3.553v5.113h-3.038v9.227h3.038v6.979
			c0,8.629,5.823,9.812,9.197,9.812c3.375,0,5.992-1.015,5.992-1.015v-8.628c0,0.354-0.818,0.9-1.937,1.051
			c-1.408,0.19-2.114-0.412-2.114-2.912c0-0.555,0-3.287,0-5.287H80.513z"/>
	</g>
</g>
</svg>
